<svg xmlns="http://www.w3.org/2000/svg" width="64" height="200" viewBox="0 0 64 338" fill="none">
  <path d="M32.2861 338L32.2861 337.97C32.3583 334.199 33.1889 330.464 34.7441 326.917C36.2976 323.378 38.556 320.077 41.427 317.147C44.2831 314.231 47.7049 311.723 51.5543 309.724C55.3838 307.735 59.5902 306.286 64 305.435L63.4553 303.648C58.8605 304.65 54.5011 306.276 50.5564 308.457C46.6342 310.633 43.1747 313.324 40.317 316.424C37.4722 319.51 35.2717 322.963 33.8057 326.642C33.1962 328.181 32.719 329.753 32.3776 331.346L34.2337 -3.00183e-06L30.6062 -3.36766e-06L31.6246 331.386C31.2808 329.783 30.8005 328.201 30.1874 326.653C28.7197 322.976 26.5202 319.524 23.6784 316.438C20.8242 313.336 17.366 310.643 13.4436 308.469C9.49958 306.284 5.14023 304.654 0.54468 303.648L-2.04202e-05 305.435C4.40935 306.287 8.61546 307.736 12.4457 309.724C16.2968 311.724 19.7195 314.233 22.5753 317.151C25.4447 320.08 27.7023 323.381 29.2559 326.919C30.8083 330.471 31.638 334.209 31.7116 337.983L31.7116 338L32.2861 338Z" fill="#6216FF"/>
</svg>